<svg xmlns="http://www.w3.org/2000/svg" viewBox="0 0 24 24" fill="#94a3b8">
  <path d="M12 .5a12 12 0 0 0-3.79 23.39c.6.11.82-.26.82-.58v-2.2c-3.34.73-4.04-1.42-4.04-1.42-.55-1.37-1.33-1.73-1.33-1.73-1.09-.73.08-.72.08-.72 1.2.08 1.84 1.2 1.84 1.2 1.08 1.8 2.83 1.28 3.52.97.11-.76.42-1.28.77-1.58-2.66-.3-5.46-1.3-5.46-5.8 0-1.29.47-2.34 1.23-3.16-.12-.3-.53-1.52.12-3.17 0 0 1.01-.32 3.3 1.2a11.7 11.7 0 0 1 6 0c2.29-1.52 3.3-1.2 3.3-1.2.65 1.65.24 2.87.12 3.17.77.82 1.23 1.87 1.23 3.16 0 4.5-2.8 5.5-5.47 5.8.43.37.81 1.1.81 2.23v3.3c0 .32.22.7.83.58A12 12 0 0 0 12 .5Z"/>
</svg>
