<svg xmlns="http://www.w3.org/2000/svg" viewBox="0 0 24 24" fill="#facc15">
  <circle cx="12" cy="12" r="4.25"/>
  <path d="M12 1.75a.75.75 0 0 1 .75.75V5a.75.75 0 0 1-1.5 0V2.5a.75.75 0 0 1 .75-.75Zm0 17.25a.75.75 0 0 1 .75.75v2.5a.75.75 0 0 1-1.5 0v-2.5A.75.75 0 0 1 12 19Zm10.25-7a.75.75 0 0 1-.75.75H19a.75.75 0 0 1 0-1.5h2.5a.75.75 0 0 1 .75.75ZM5 12.75H2.5a.75.75 0 0 1 0-1.5H5a.75.75 0 0 1 0 1.5Zm13.19 5.44a.75.75 0 0 1-1.06 0l-1.77-1.77a.75.75 0 1 1 1.06-1.06l1.77 1.77a.75.75 0 0 1 0 1.06ZM8.64 8.64a.75.75 0 0 1-1.06 0L5.81 6.87a.75.75 0 1 1 1.06-1.06l1.77 1.77a.75.75 0 0 1 0 1.06Zm9.55-2.83a.75.75 0 0 1 0 1.06l-1.77 1.77a.75.75 0 0 1-1.06-1.06l1.77-1.77a.75.75 0 0 1 1.06 0Zm-9.55 9.55a.75.75 0 0 1 0 1.06l-1.77 1.77a.75.75 0 0 1-1.06-1.06l1.77-1.77a.75.75 0 0 1 1.06 0Z"/>
</svg>
